<svg width="241" height="111" viewBox="0 0 241 111" fill="none" xmlns="http://www.w3.org/2000/svg">
<path d="M40.8672 81.9023H25.6094L28.8438 72.6562H37.2812L24.8008 40.3477H39.9531L58.5508 87H42.8359L40.8672 81.9023ZM21.4609 87H6.44922L23.1133 42.457L30.0039 60.9844L21.4609 87Z" fill="#1E9EE6"/>
<path d="M18.1328 29.0977H33.3906L30.1562 38.3438H21.7188L34.1992 70.6523H19.0469L0.449219 24H16.1641L18.1328 29.0977ZM37.5391 24H52.5508L35.8867 68.543L28.9961 50.0156L37.5391 24Z" fill="#1E9EE6"/>
<path d="M68.3604 62.975C68.0438 62.975 67.8021 62.825 67.6354 62.525L65.7105 57.925C65.6104 57.7083 65.4104 57.6 65.1104 57.6H57.6354C57.3354 57.6 57.1354 57.7333 57.0354 58L55.1354 62.525C54.9688 62.825 54.7271 62.975 54.4104 62.975C54.3104 62.975 54.2021 62.95 54.0854 62.9C53.7521 62.7667 53.5854 62.5333 53.5854 62.2C53.5854 62.1 53.6021 62 53.6354 61.9L60.6354 45.225C60.7688 44.9083 61.0188 44.75 61.3854 44.75C61.7188 44.75 61.9688 44.9083 62.1354 45.225L69.1354 61.9C69.1855 62 69.2105 62.1 69.2105 62.2C69.2105 62.5333 69.0355 62.7667 68.6854 62.9C68.5688 62.95 68.4605 62.975 68.3604 62.975ZM64.4604 55.975C64.6938 55.975 64.8104 55.9167 64.8104 55.8C64.8104 55.75 64.7854 55.675 64.7354 55.575C64.6854 55.4583 64.4771 54.9583 64.1104 54.075C63.7438 53.1917 63.3354 52.2167 62.8854 51.15L61.6104 48.05C61.5438 47.8333 61.4688 47.725 61.3854 47.725C61.2188 47.725 60.1688 50.175 58.2354 55.075C58.1021 55.425 58.0271 55.625 58.0104 55.675C57.9938 55.7083 57.9854 55.7417 57.9854 55.775C57.9854 55.9083 58.0938 55.975 58.3104 55.975H64.4604ZM83.0476 63C82.7976 63 82.5976 62.925 82.4476 62.775C82.2976 62.625 82.2226 62.4417 82.2226 62.225V49.175C82.2226 48.7583 82.1642 48.55 82.0476 48.55C81.9809 48.55 81.8642 48.675 81.6976 48.925C81.5309 49.1583 80.9642 49.9667 79.9976 51.35C79.0476 52.7333 77.9726 54.3 76.7726 56.05C75.5726 57.7833 74.5142 59.3167 73.5976 60.65L72.2226 62.675C72.0559 62.8917 71.8476 63 71.5976 63C71.4809 63 71.3559 62.975 71.2226 62.925C71.0892 62.8583 70.9726 62.75 70.8726 62.6C70.7892 62.45 70.7476 62.3167 70.7476 62.2V45.525C70.7476 45.3083 70.8226 45.125 70.9726 44.975C71.1226 44.825 71.3226 44.75 71.5726 44.75C71.8059 44.75 71.9976 44.825 72.1476 44.975C72.2976 45.125 72.3726 45.3083 72.3726 45.525V58.4C72.3726 58.8333 72.4392 59.05 72.5726 59.05C72.6726 59.05 72.7976 58.9417 72.9476 58.725C73.1142 58.5083 73.6642 57.7167 74.5976 56.35C75.5476 54.9833 76.6142 53.4333 77.7976 51.7C78.9976 49.9667 80.0559 48.4333 80.9726 47.1L82.3476 45.1C82.5309 44.8667 82.7392 44.75 82.9726 44.75C83.0892 44.75 83.2059 44.775 83.3226 44.825C83.6726 44.975 83.8476 45.2167 83.8476 45.55V62.225C83.8476 62.4417 83.7726 62.625 83.6226 62.775C83.4726 62.925 83.2809 63 83.0476 63ZM95.4231 63.325C93.6898 63.325 92.1065 62.9 90.6731 62.05C89.2398 61.2 88.0981 60.0583 87.2481 58.625C86.3981 57.1917 85.9731 55.6083 85.9731 53.875C85.9731 52.125 86.3981 50.5417 87.2481 49.125C88.0981 47.6917 89.2398 46.5583 90.6731 45.725C92.1065 44.875 93.6898 44.45 95.4231 44.45C96.6065 44.45 97.7148 44.6583 98.7481 45.075C99.7815 45.4917 100.69 46.0333 101.473 46.7C101.64 46.8167 101.723 46.9917 101.723 47.225V48.825C101.723 48.9917 101.681 49.075 101.598 49.075C101.531 49.075 101.465 49.0333 101.398 48.95C100.715 48.0333 99.8565 47.3083 98.8231 46.775C97.7898 46.225 96.6565 45.95 95.4231 45.95C93.2565 45.95 91.4065 46.7333 89.8731 48.3C88.3398 49.85 87.5731 51.7083 87.5731 53.875C87.5731 55.3083 87.9231 56.6333 88.6231 57.85C89.3398 59.05 90.2898 60.0167 91.4731 60.75C92.6731 61.4667 93.9898 61.825 95.4231 61.825C96.6565 61.825 97.7898 61.55 98.8231 61C99.8565 60.45 100.715 59.7167 101.398 58.8C101.465 58.7167 101.531 58.675 101.598 58.675C101.681 58.675 101.723 58.75 101.723 58.9V60.5C101.723 60.75 101.64 60.9333 101.473 61.05C100.673 61.75 99.7565 62.3083 98.7231 62.725C97.7065 63.125 96.6065 63.325 95.4231 63.325ZM127.442 62.975C127.126 62.975 126.884 62.825 126.717 62.525L124.792 57.925C124.692 57.7083 124.492 57.6 124.192 57.6H116.717C116.417 57.6 116.217 57.7333 116.117 58L114.217 62.525C114.051 62.825 113.809 62.975 113.492 62.975C113.392 62.975 113.284 62.95 113.167 62.9C112.834 62.7667 112.667 62.5333 112.667 62.2C112.667 62.1 112.684 62 112.717 61.9L119.717 45.225C119.851 44.9083 120.101 44.75 120.467 44.75C120.801 44.75 121.051 44.9083 121.217 45.225L128.217 61.9C128.267 62 128.292 62.1 128.292 62.2C128.292 62.5333 128.117 62.7667 127.767 62.9C127.651 62.95 127.542 62.975 127.442 62.975ZM123.542 55.975C123.776 55.975 123.892 55.9167 123.892 55.8C123.892 55.75 123.867 55.675 123.817 55.575C123.767 55.4583 123.559 54.9583 123.192 54.075C122.826 53.1917 122.417 52.2167 121.967 51.15L120.692 48.05C120.626 47.8333 120.551 47.725 120.467 47.725C120.301 47.725 119.251 50.175 117.317 55.075C117.184 55.425 117.109 55.625 117.092 55.675C117.076 55.7083 117.067 55.7417 117.067 55.775C117.067 55.9083 117.176 55.975 117.392 55.975H123.542ZM135.68 63.325C134.53 63.325 133.471 63.025 132.505 62.425C131.555 61.825 130.796 61.0417 130.23 60.075C129.663 59.1083 129.38 58.0833 129.38 57C129.38 55.4 129.538 53.3083 129.855 50.725C130.005 49.5583 130.346 48.5083 130.88 47.575C131.43 46.625 132.138 45.8667 133.005 45.3C133.888 44.7333 134.888 44.45 136.005 44.45C136.538 44.45 137.055 44.5167 137.555 44.65C138.071 44.7833 138.546 44.85 138.98 44.85C139.396 44.85 139.755 44.6833 140.055 44.35C140.238 44.1333 140.371 44.025 140.455 44.025C140.555 44.025 140.605 44.1417 140.605 44.375V45.575C140.605 46.025 140.155 46.25 139.255 46.25C138.821 46.25 138.305 46.2 137.705 46.1C137.105 45.9833 136.538 45.925 136.005 45.925C134.738 45.925 133.638 46.5 132.705 47.65C131.788 48.7833 131.238 50.3917 131.055 52.475C131.055 52.675 131.105 52.775 131.205 52.775C131.271 52.775 131.346 52.725 131.43 52.625C131.913 51.9917 132.538 51.5167 133.305 51.2C134.071 50.8833 134.863 50.725 135.68 50.725C137.43 50.725 138.913 51.3417 140.13 52.575C141.363 53.7917 141.98 55.2667 141.98 57C141.98 58.7333 141.363 60.225 140.13 61.475C138.913 62.7083 137.43 63.325 135.68 63.325ZM135.68 61.825C136.98 61.825 138.088 61.35 139.005 60.4C139.921 59.4333 140.38 58.3 140.38 57C140.38 55.7 139.921 54.5833 139.005 53.65C138.088 52.7 136.98 52.225 135.68 52.225C134.396 52.225 133.296 52.7 132.38 53.65C131.463 54.5833 131.005 55.7 131.005 57C131.005 58.3 131.463 59.4333 132.38 60.4C133.296 61.35 134.396 61.825 135.68 61.825ZM148.889 63.325C148.122 63.325 147.364 63.175 146.614 62.875C145.864 62.575 145.247 62.0583 144.764 61.325C144.28 60.575 144.039 59.5417 144.039 58.225V51.825C144.039 51.5917 144.114 51.4 144.264 51.25C144.43 51.1 144.639 51.025 144.889 51.025C145.122 51.025 145.314 51.1 145.464 51.25C145.614 51.4 145.689 51.5917 145.689 51.825V58.125C145.689 59.3917 145.997 60.3167 146.614 60.9C147.247 61.4833 148.005 61.775 148.889 61.775C151.155 61.775 152.289 60.7417 152.289 58.675V51.825C152.289 51.5917 152.364 51.4 152.514 51.25C152.68 51.1 152.88 51.025 153.114 51.025C153.364 51.025 153.564 51.1 153.714 51.25C153.864 51.4 153.939 51.5917 153.939 51.825L153.964 62.2C153.964 62.4167 153.88 62.6083 153.714 62.775C153.564 62.925 153.372 63 153.139 63C152.905 63 152.705 62.9333 152.539 62.8C152.389 62.6667 152.314 62.4833 152.314 62.25V62.025C152.314 61.9583 152.28 61.925 152.214 61.925C152.18 61.925 152.147 61.9417 152.114 61.975C151.73 62.475 151.222 62.825 150.589 63.025C149.955 63.225 149.389 63.325 148.889 63.325ZM160.39 63C160.14 63 159.94 62.925 159.79 62.775C159.64 62.625 159.565 62.4417 159.565 62.225V52.875C159.565 52.8083 159.54 52.75 159.49 52.7C159.457 52.65 159.399 52.625 159.315 52.625H156.665C156.449 52.625 156.265 52.55 156.115 52.4C155.965 52.25 155.89 52.0583 155.89 51.825C155.89 51.5917 155.965 51.4 156.115 51.25C156.265 51.1 156.449 51.025 156.665 51.025H164.09C164.307 51.025 164.49 51.1 164.64 51.25C164.79 51.4 164.865 51.5917 164.865 51.825C164.865 52.0583 164.79 52.25 164.64 52.4C164.49 52.55 164.307 52.625 164.09 52.625H161.415C161.349 52.625 161.29 52.65 161.24 52.7C161.207 52.75 161.19 52.8083 161.19 52.875V62.225C161.19 62.4417 161.115 62.625 160.965 62.775C160.815 62.925 160.624 63 160.39 63ZM168.867 65.575H168.217C167.967 65.575 167.842 65.475 167.842 65.275C167.842 65.1917 167.859 65.1083 167.892 65.025L169.792 61.05C169.909 60.8333 169.967 60.65 169.967 60.5C169.967 60.3667 169.909 60.1917 169.792 59.975C167.126 54.2917 165.792 51.4167 165.792 51.35C165.792 51.1333 165.926 51.025 166.192 51.025H166.842C167.009 51.025 167.176 51.075 167.342 51.175C167.509 51.275 167.626 51.4 167.692 51.55L170.767 58.875C170.851 59.0583 170.909 59.15 170.942 59.15C170.976 59.15 171.026 59.0667 171.092 58.9C171.126 58.85 172.167 56.4 174.217 51.55C174.284 51.4 174.401 51.275 174.567 51.175C174.734 51.075 174.901 51.025 175.067 51.025H175.717C175.984 51.025 176.117 51.1333 176.117 51.35C176.117 51.4167 173.984 55.975 169.717 65.025C169.651 65.175 169.534 65.3 169.367 65.4C169.217 65.5167 169.051 65.575 168.867 65.575ZM178.432 66.5C178.198 66.5 178.007 66.425 177.857 66.275C177.723 66.1417 177.657 65.9667 177.657 65.75V51.8C177.657 51.5833 177.723 51.4 177.857 51.25C178.007 51.1 178.198 51.025 178.432 51.025C178.665 51.025 178.857 51.1 179.007 51.25C179.157 51.4 179.232 51.5833 179.232 51.8V52.525C179.232 52.675 179.282 52.75 179.382 52.75C179.448 52.75 179.507 52.7167 179.557 52.65C180.057 52.0333 180.698 51.5583 181.482 51.225C182.282 50.8917 183.115 50.725 183.982 50.725C185.732 50.725 187.223 51.3417 188.457 52.575C189.69 53.8083 190.307 55.3 190.307 57.05C190.307 58.8 189.682 60.2833 188.432 61.5C187.182 62.7167 185.682 63.325 183.932 63.325C183.048 63.325 182.207 63.1583 181.407 62.825C180.623 62.4917 179.973 61.9917 179.457 61.325C179.44 61.2917 179.415 61.275 179.382 61.275H179.357C179.273 61.275 179.232 61.3417 179.232 61.475V65.75C179.232 65.9667 179.157 66.1417 179.007 66.275C178.857 66.425 178.665 66.5 178.432 66.5ZM183.932 61.825C185.248 61.825 186.373 61.3583 187.307 60.425C188.24 59.475 188.707 58.35 188.707 57.05C188.707 55.75 188.24 54.625 187.307 53.675C186.39 52.7083 185.282 52.225 183.982 52.225C182.682 52.225 181.565 52.7083 180.632 53.675C179.715 54.625 179.257 55.75 179.257 57.05C179.257 58.35 179.707 59.475 180.607 60.425C181.523 61.3583 182.632 61.825 183.932 61.825ZM197.204 63.325C196.437 63.325 195.679 63.175 194.929 62.875C194.179 62.575 193.562 62.0583 193.079 61.325C192.596 60.575 192.354 59.5417 192.354 58.225V51.825C192.354 51.5917 192.429 51.4 192.579 51.25C192.746 51.1 192.954 51.025 193.204 51.025C193.437 51.025 193.629 51.1 193.779 51.25C193.929 51.4 194.004 51.5917 194.004 51.825V58.125C194.004 59.3917 194.312 60.3167 194.929 60.9C195.562 61.4833 196.321 61.775 197.204 61.775C199.471 61.775 200.604 60.7417 200.604 58.675V51.825C200.604 51.5917 200.679 51.4 200.829 51.25C200.996 51.1 201.196 51.025 201.429 51.025C201.679 51.025 201.879 51.1 202.029 51.25C202.179 51.4 202.254 51.5917 202.254 51.825L202.279 62.2C202.279 62.4167 202.196 62.6083 202.029 62.775C201.879 62.925 201.687 63 201.454 63C201.221 63 201.021 62.9333 200.854 62.8C200.704 62.6667 200.629 62.4833 200.629 62.25V62.025C200.629 61.9583 200.596 61.925 200.529 61.925C200.496 61.925 200.462 61.9417 200.429 61.975C200.046 62.475 199.537 62.825 198.904 63.025C198.271 63.225 197.704 63.325 197.204 63.325ZM210.656 63.325C208.906 63.325 207.414 62.7083 206.181 61.475C204.947 60.2417 204.331 58.75 204.331 57C204.331 55.25 204.947 53.7667 206.181 52.55C207.414 51.3333 208.906 50.725 210.656 50.725C212.406 50.725 213.897 51.3333 215.131 52.55C216.014 53.4333 216.539 54.5 216.706 55.75L216.731 55.925C216.731 56.075 216.689 56.25 216.606 56.45C216.522 56.65 216.306 56.75 215.956 56.75H206.381C206.214 56.75 206.106 56.7833 206.056 56.85C206.006 56.9 205.981 56.9833 205.981 57.1V57.225C206.081 58.475 206.539 59.5 207.356 60.3C208.372 61.3167 209.472 61.825 210.656 61.825C211.289 61.825 211.897 61.6917 212.481 61.425C213.081 61.1417 213.531 60.8167 213.831 60.45C214.231 59.95 214.564 59.7 214.831 59.7C214.981 59.7 215.147 59.75 215.331 59.85C215.564 60.0167 215.681 60.2333 215.681 60.5C215.681 60.7167 215.597 60.925 215.431 61.125C214.081 62.5917 212.489 63.325 210.656 63.325ZM214.506 55.15C214.756 55.15 214.881 55.1 214.881 55C214.881 54.9167 214.831 54.8167 214.731 54.7V54.675C214.564 54.3417 214.306 54.0167 213.956 53.7C213.039 52.7167 211.939 52.225 210.656 52.225C209.356 52.225 208.247 52.7167 207.331 53.7C206.947 54.1 206.656 54.4667 206.456 54.8C206.406 54.9 206.381 54.975 206.381 55.025C206.381 55.0583 206.397 55.0917 206.431 55.125C206.481 55.1417 209.172 55.15 214.506 55.15ZM228.297 63C228.047 63 227.847 62.925 227.697 62.775C227.547 62.625 227.472 62.4417 227.472 62.225V57.825C227.472 57.7583 227.447 57.7083 227.397 57.675C227.363 57.625 227.313 57.6 227.247 57.6H220.547C220.48 57.6 220.422 57.625 220.372 57.675C220.338 57.7083 220.322 57.7583 220.322 57.825V62.225C220.322 62.4417 220.247 62.625 220.097 62.775C219.947 62.925 219.755 63 219.522 63C219.272 63 219.072 62.925 218.922 62.775C218.772 62.625 218.697 62.4417 218.697 62.225V51.8C218.697 51.5833 218.772 51.4 218.922 51.25C219.072 51.1 219.272 51.025 219.522 51.025C219.755 51.025 219.947 51.1 220.097 51.25C220.247 51.4 220.322 51.5833 220.322 51.8V55.75C220.322 55.8167 220.338 55.875 220.372 55.925C220.422 55.9583 220.48 55.975 220.547 55.975H227.247C227.313 55.975 227.363 55.9583 227.397 55.925C227.447 55.875 227.472 55.8167 227.472 55.75V51.8C227.472 51.5833 227.547 51.4 227.697 51.25C227.847 51.1 228.047 51.025 228.297 51.025C228.53 51.025 228.722 51.1 228.872 51.25C229.022 51.4 229.097 51.5833 229.097 51.8V62.225C229.097 62.4417 229.022 62.625 228.872 62.775C228.722 62.925 228.53 63 228.297 63ZM235.512 63C235.262 63 235.062 62.925 234.912 62.775C234.762 62.625 234.687 62.4417 234.687 62.225V52.875C234.687 52.8083 234.662 52.75 234.612 52.7C234.579 52.65 234.521 52.625 234.437 52.625H231.787C231.571 52.625 231.387 52.55 231.237 52.4C231.087 52.25 231.012 52.0583 231.012 51.825C231.012 51.5917 231.087 51.4 231.237 51.25C231.387 51.1 231.571 51.025 231.787 51.025H239.212C239.429 51.025 239.612 51.1 239.762 51.25C239.912 51.4 239.987 51.5917 239.987 51.825C239.987 52.0583 239.912 52.25 239.762 52.4C239.612 52.55 239.429 52.625 239.212 52.625H236.537C236.471 52.625 236.412 52.65 236.362 52.7C236.329 52.75 236.312 52.8083 236.312 52.875V62.225C236.312 62.4417 236.237 62.625 236.087 62.775C235.937 62.925 235.746 63 235.512 63Z" fill="black"/>
<path d="M104.564 83.184V87.064C104.564 87.2667 104.495 87.4293 104.356 87.552C104.217 87.6747 104.036 87.736 103.812 87.736H102.364V85H93.3879V73.392H95.8039V83.184H100.532V73.392H102.948V83.184H104.564ZM110.753 79.904C110.753 79.6747 110.721 79.456 110.657 79.248C110.599 79.04 110.503 78.856 110.369 78.696C110.236 78.536 110.068 78.4107 109.865 78.32C109.663 78.224 109.42 78.176 109.137 78.176C108.609 78.176 108.196 78.3253 107.897 78.624C107.599 78.9227 107.404 79.3493 107.313 79.904H110.753ZM107.281 81.216C107.351 81.9893 107.569 82.5547 107.937 82.912C108.311 83.2693 108.796 83.448 109.393 83.448C109.697 83.448 109.959 83.4133 110.177 83.344C110.401 83.2693 110.596 83.1893 110.761 83.104C110.932 83.0133 111.084 82.9333 111.217 82.864C111.356 82.7893 111.492 82.752 111.625 82.752C111.796 82.752 111.929 82.816 112.025 82.944L112.665 83.744C112.431 84.016 112.172 84.2427 111.889 84.424C111.607 84.6 111.313 84.7413 111.009 84.848C110.705 84.9493 110.399 85.0187 110.089 85.056C109.78 85.0987 109.481 85.12 109.193 85.12C108.617 85.12 108.079 85.0267 107.577 84.84C107.081 84.648 106.647 84.368 106.273 84C105.905 83.6267 105.615 83.1653 105.401 82.616C105.188 82.0667 105.081 81.4293 105.081 80.704C105.081 80.144 105.172 79.616 105.353 79.12C105.54 78.624 105.807 78.192 106.153 77.824C106.5 77.456 106.921 77.1653 107.417 76.952C107.913 76.7333 108.473 76.624 109.097 76.624C109.625 76.624 110.111 76.7093 110.553 76.88C111.001 77.0453 111.385 77.288 111.705 77.608C112.031 77.928 112.281 78.3227 112.457 78.792C112.639 79.256 112.729 79.7867 112.729 80.384C112.729 80.5493 112.721 80.6853 112.705 80.792C112.689 80.8987 112.663 80.984 112.625 81.048C112.588 81.112 112.537 81.1573 112.473 81.184C112.409 81.2053 112.327 81.216 112.225 81.216H107.281ZM121.42 76.752V85H119.22V81.424H116.308V85H114.1V76.752H116.308V79.816H119.22V76.752H121.42ZM130.424 78.36H127.576V85H125.368V78.36H122.52V76.752H130.424V78.36ZM133.714 82.824C133.922 83.064 134.146 83.232 134.386 83.328C134.631 83.424 134.892 83.472 135.17 83.472C135.436 83.472 135.679 83.4213 135.898 83.32C136.116 83.2187 136.303 83.0613 136.458 82.848C136.618 82.6293 136.74 82.352 136.826 82.016C136.911 81.68 136.954 81.28 136.954 80.816C136.954 80.3573 136.916 79.968 136.842 79.648C136.772 79.328 136.671 79.0693 136.538 78.872C136.41 78.6747 136.252 78.5333 136.066 78.448C135.879 78.3573 135.671 78.312 135.442 78.312C135.052 78.312 134.724 78.3893 134.458 78.544C134.196 78.6933 133.948 78.9147 133.714 79.208V82.824ZM133.586 77.832C133.751 77.6507 133.927 77.4853 134.114 77.336C134.3 77.1813 134.5 77.0507 134.714 76.944C134.927 76.832 135.156 76.7467 135.402 76.688C135.647 76.624 135.914 76.592 136.202 76.592C136.644 76.592 137.05 76.688 137.418 76.88C137.791 77.0667 138.111 77.3413 138.378 77.704C138.644 78.0613 138.852 78.5013 139.002 79.024C139.151 79.5467 139.226 80.144 139.226 80.816C139.226 81.4347 139.14 82.008 138.97 82.536C138.804 83.0587 138.567 83.512 138.258 83.896C137.948 84.28 137.575 84.5813 137.138 84.8C136.706 85.0133 136.223 85.12 135.69 85.12C135.242 85.12 134.86 85.0533 134.546 84.92C134.236 84.7867 133.959 84.6053 133.714 84.376V87.664H131.506V76.752H132.866C133.143 76.752 133.327 76.88 133.418 77.136L133.586 77.832ZM151.995 76.752V85H149.787V80.464C149.787 80.3413 149.793 80.2027 149.803 80.048C149.819 79.888 149.841 79.7307 149.867 79.576C149.745 79.8427 149.619 80.0693 149.491 80.256C149.481 80.2667 149.433 80.336 149.347 80.464C149.262 80.592 149.15 80.7573 149.011 80.96C148.873 81.1573 148.715 81.3813 148.539 81.632C148.369 81.8827 148.193 82.1387 148.011 82.4C147.59 83.008 147.113 83.6987 146.579 84.472C146.537 84.536 146.486 84.6 146.427 84.664C146.374 84.7227 146.313 84.7787 146.243 84.832C146.179 84.8853 146.11 84.928 146.035 84.96C145.961 84.992 145.881 85.008 145.795 85.008H144.443V76.76H146.651V81.296C146.651 81.424 146.643 81.568 146.627 81.728C146.611 81.888 146.59 82.0453 146.563 82.2C146.627 82.0613 146.691 81.9333 146.755 81.816C146.819 81.6987 146.883 81.5947 146.947 81.504C146.953 81.4933 146.998 81.424 147.083 81.296C147.174 81.168 147.289 81.0053 147.427 80.808C147.566 80.6053 147.721 80.3787 147.891 80.128C148.067 79.8773 148.246 79.6213 148.427 79.36C148.849 78.752 149.329 78.0613 149.867 77.288C149.947 77.16 150.054 77.04 150.187 76.928C150.326 76.8107 150.481 76.752 150.651 76.752H151.995ZM161.154 76.752V85H158.954V81.424H156.042V85H153.834V76.752H156.042V79.816H158.954V76.752H161.154ZM168.974 83.512C169.331 83.48 169.654 83.3973 169.942 83.264C170.23 83.1307 170.473 82.9547 170.67 82.736C170.873 82.512 171.027 82.2453 171.134 81.936C171.241 81.6213 171.294 81.2667 171.294 80.872C171.294 80.4827 171.241 80.1333 171.134 79.824C171.027 79.5093 170.873 79.24 170.67 79.016C170.473 78.792 170.23 78.6133 169.942 78.48C169.654 78.3467 169.331 78.264 168.974 78.232V83.512ZM167.054 78.232C166.697 78.264 166.374 78.3467 166.086 78.48C165.798 78.6133 165.553 78.792 165.35 79.016C165.153 79.24 165.001 79.5093 164.894 79.824C164.787 80.1333 164.734 80.4827 164.734 80.872C164.734 81.2667 164.787 81.6213 164.894 81.936C165.001 82.2453 165.153 82.512 165.35 82.736C165.553 82.96 165.798 83.1387 166.086 83.272C166.374 83.4 166.697 83.48 167.054 83.512V78.232ZM169.046 76.64C169.702 76.6827 170.302 76.8107 170.846 77.024C171.39 77.232 171.857 77.5173 172.246 77.88C172.641 78.2427 172.947 78.6773 173.166 79.184C173.385 79.6853 173.494 80.2453 173.494 80.864C173.494 81.488 173.385 82.0533 173.166 82.56C172.947 83.0613 172.641 83.4933 172.246 83.856C171.857 84.2187 171.39 84.5093 170.846 84.728C170.302 84.9413 169.702 85.0667 169.046 85.104V87.736H166.982V85.104C166.326 85.0667 165.726 84.9413 165.182 84.728C164.638 84.5147 164.169 84.2267 163.774 83.864C163.385 83.496 163.081 83.0613 162.862 82.56C162.643 82.0533 162.534 81.488 162.534 80.864C162.534 80.2453 162.643 79.6853 162.862 79.184C163.081 78.6773 163.385 78.2427 163.774 77.88C164.169 77.5173 164.638 77.2293 165.182 77.016C165.726 76.8027 166.326 76.6773 166.982 76.64V73.392H169.046V76.64ZM178.585 76.624C179.204 76.624 179.766 76.7227 180.273 76.92C180.78 77.1173 181.214 77.4 181.577 77.768C181.94 78.1307 182.22 78.5733 182.417 79.096C182.614 79.6187 182.713 80.208 182.713 80.864C182.713 81.52 182.614 82.112 182.417 82.64C182.22 83.1627 181.94 83.608 181.577 83.976C181.214 84.344 180.78 84.6267 180.273 84.824C179.766 85.0213 179.204 85.12 178.585 85.12C177.961 85.12 177.393 85.0213 176.881 84.824C176.374 84.6267 175.94 84.344 175.577 83.976C175.214 83.608 174.932 83.1627 174.729 82.64C174.532 82.112 174.433 81.52 174.433 80.864C174.433 80.208 174.532 79.6187 174.729 79.096C174.932 78.5733 175.214 78.1307 175.577 77.768C175.94 77.4 176.374 77.1173 176.881 76.92C177.393 76.7227 177.961 76.624 178.585 76.624ZM178.585 83.464C179.214 83.464 179.681 83.248 179.985 82.816C180.289 82.3787 180.441 81.7307 180.441 80.872C180.441 80.0187 180.289 79.376 179.985 78.944C179.681 78.5067 179.214 78.288 178.585 78.288C177.94 78.288 177.465 78.5067 177.161 78.944C176.857 79.376 176.705 80.0187 176.705 80.872C176.705 81.7307 176.857 82.3787 177.161 82.816C177.465 83.248 177.94 83.464 178.585 83.464ZM186.308 82.824C186.516 83.064 186.74 83.232 186.98 83.328C187.225 83.424 187.486 83.472 187.764 83.472C188.03 83.472 188.273 83.4213 188.492 83.32C188.71 83.2187 188.897 83.0613 189.052 82.848C189.212 82.6293 189.334 82.352 189.42 82.016C189.505 81.68 189.548 81.28 189.548 80.816C189.548 80.3573 189.51 79.968 189.436 79.648C189.366 79.328 189.265 79.0693 189.132 78.872C189.004 78.6747 188.846 78.5333 188.66 78.448C188.473 78.3573 188.265 78.312 188.036 78.312C187.646 78.312 187.318 78.3893 187.052 78.544C186.79 78.6933 186.542 78.9147 186.308 79.208V82.824ZM186.18 77.832C186.345 77.6507 186.521 77.4853 186.708 77.336C186.894 77.1813 187.094 77.0507 187.308 76.944C187.521 76.832 187.75 76.7467 187.996 76.688C188.241 76.624 188.508 76.592 188.796 76.592C189.238 76.592 189.644 76.688 190.012 76.88C190.385 77.0667 190.705 77.3413 190.972 77.704C191.238 78.0613 191.446 78.5013 191.595 79.024C191.745 79.5467 191.819 80.144 191.819 80.816C191.819 81.4347 191.734 82.008 191.564 82.536C191.398 83.0587 191.161 83.512 190.852 83.896C190.542 84.28 190.169 84.5813 189.732 84.8C189.3 85.0133 188.817 85.12 188.284 85.12C187.836 85.12 187.454 85.0533 187.14 84.92C186.83 84.7867 186.553 84.6053 186.308 84.376V87.664H184.1V76.752H185.46C185.737 76.752 185.921 76.88 186.012 77.136L186.18 77.832ZM202.952 76.744V85H200.96V80.712C200.96 80.52 200.971 80.3013 200.992 80.056C201.013 79.8107 201.043 79.5787 201.08 79.36L198.84 83.576C198.707 83.8267 198.501 83.952 198.224 83.952H197.984C197.712 83.952 197.504 83.8267 197.36 83.576L195.096 79.344C195.139 79.5627 195.171 79.7973 195.192 80.048C195.219 80.2933 195.232 80.5147 195.232 80.712V85H193.24V76.744H195.08C195.229 76.744 195.379 76.776 195.528 76.84C195.677 76.904 195.805 77.032 195.912 77.224L197.608 80.4C197.699 80.5707 197.784 80.7547 197.864 80.952C197.949 81.144 198.029 81.3413 198.104 81.544C198.173 81.3413 198.248 81.144 198.328 80.952C198.413 80.7547 198.501 80.5707 198.592 80.4L200.28 77.224C200.387 77.0213 200.515 76.8907 200.664 76.832C200.813 76.7733 200.963 76.744 201.112 76.744H202.952ZM209.083 81.552C208.545 81.5787 208.097 81.6267 207.739 81.696C207.382 81.76 207.097 81.8453 206.883 81.952C206.675 82.0587 206.526 82.1813 206.435 82.32C206.35 82.4533 206.307 82.6 206.307 82.76C206.307 83.08 206.395 83.3067 206.571 83.44C206.753 83.5733 207.003 83.64 207.323 83.64C207.691 83.64 208.009 83.576 208.275 83.448C208.547 83.3147 208.817 83.1093 209.083 82.832V81.552ZM204.587 77.896C205.073 77.4587 205.609 77.1333 206.195 76.92C206.782 76.7013 207.417 76.592 208.099 76.592C208.59 76.592 209.027 76.672 209.411 76.832C209.801 76.992 210.129 77.216 210.395 77.504C210.667 77.7867 210.875 78.1253 211.019 78.52C211.163 78.9147 211.235 79.3467 211.235 79.816V85H210.227C210.019 85 209.859 84.9707 209.747 84.912C209.641 84.8533 209.553 84.7307 209.483 84.544L209.307 84.016C209.099 84.1973 208.897 84.3573 208.699 84.496C208.507 84.6347 208.307 84.752 208.099 84.848C207.891 84.9387 207.667 85.008 207.427 85.056C207.193 85.104 206.929 85.128 206.635 85.128C206.273 85.128 205.942 85.08 205.643 84.984C205.345 84.888 205.086 84.7467 204.867 84.56C204.654 84.368 204.489 84.1307 204.371 83.848C204.254 83.5653 204.195 83.24 204.195 82.872C204.195 82.568 204.273 82.264 204.427 81.96C204.582 81.656 204.846 81.3813 205.219 81.136C205.598 80.8853 206.099 80.68 206.723 80.52C207.353 80.3547 208.139 80.2613 209.083 80.24V79.816C209.083 79.2987 208.974 78.92 208.755 78.68C208.537 78.4347 208.222 78.312 207.811 78.312C207.507 78.312 207.254 78.3493 207.051 78.424C206.849 78.4933 206.67 78.5707 206.515 78.656C206.366 78.736 206.225 78.8133 206.091 78.888C205.958 78.9573 205.803 78.992 205.627 78.992C205.473 78.992 205.342 78.9547 205.235 78.88C205.134 78.8 205.049 78.7067 204.979 78.6L204.587 77.896ZM221.799 83.392V87.096C221.799 87.2933 221.74 87.448 221.623 87.56C221.506 87.6773 221.356 87.736 221.175 87.736H219.791V85H212.959V76.752H215.167V83.392H218.079V76.752H220.279V83.392H221.799ZM230.511 76.752V85H228.303V80.464C228.303 80.3413 228.308 80.2027 228.319 80.048C228.335 79.888 228.356 79.7307 228.383 79.576C228.26 79.8427 228.135 80.0693 228.007 80.256C227.996 80.2667 227.948 80.336 227.863 80.464C227.778 80.592 227.666 80.7573 227.527 80.96C227.388 81.1573 227.231 81.3813 227.055 81.632C226.884 81.8827 226.708 82.1387 226.527 82.4C226.106 83.008 225.628 83.6987 225.095 84.472C225.052 84.536 225.002 84.6 224.943 84.664C224.89 84.7227 224.828 84.7787 224.759 84.832C224.695 84.8853 224.626 84.928 224.551 84.96C224.476 84.992 224.396 85.008 224.311 85.008H222.959V76.76H225.167V81.296C225.167 81.424 225.159 81.568 225.143 81.728C225.127 81.888 225.106 82.0453 225.079 82.2C225.143 82.0613 225.207 81.9333 225.271 81.816C225.335 81.6987 225.399 81.5947 225.463 81.504C225.468 81.4933 225.514 81.424 225.599 81.296C225.69 81.168 225.804 81.0053 225.943 80.808C226.082 80.6053 226.236 80.3787 226.407 80.128C226.583 79.8773 226.762 79.6213 226.943 79.36C227.364 78.752 227.844 78.0613 228.383 77.288C228.463 77.16 228.57 77.04 228.703 76.928C228.842 76.8107 228.996 76.752 229.167 76.752H230.511ZM239.902 76.752V85H237.694V80.464C237.694 80.3413 237.699 80.2027 237.71 80.048C237.726 79.888 237.747 79.7307 237.774 79.576C237.651 79.8427 237.526 80.0693 237.398 80.256C237.387 80.2667 237.339 80.336 237.254 80.464C237.168 80.592 237.056 80.7573 236.918 80.96C236.779 81.1573 236.622 81.3813 236.446 81.632C236.275 81.8827 236.099 82.1387 235.918 82.4C235.496 83.008 235.019 83.6987 234.486 84.472C234.443 84.536 234.392 84.6 234.334 84.664C234.28 84.7227 234.219 84.7787 234.15 84.832C234.086 84.8853 234.016 84.928 233.942 84.96C233.867 84.992 233.787 85.008 233.702 85.008H232.35V76.76H234.558V81.296C234.558 81.424 234.55 81.568 234.534 81.728C234.518 81.888 234.496 82.0453 234.47 82.2C234.534 82.0613 234.598 81.9333 234.662 81.816C234.726 81.6987 234.79 81.5947 234.854 81.504C234.859 81.4933 234.904 81.424 234.99 81.296C235.08 81.168 235.195 81.0053 235.334 80.808C235.472 80.6053 235.627 80.3787 235.798 80.128C235.974 79.8773 236.152 79.6213 236.334 79.36C236.755 78.752 237.235 78.0613 237.774 77.288C237.854 77.16 237.96 77.04 238.094 76.928C238.232 76.8107 238.387 76.752 238.558 76.752H239.902Z" fill="#F3CB5C"/>
</svg>
